<svg width="25" height="32" viewBox="0 0 32 32" xmlns="http://www.w3.org/2000/svg"><path fill="#fff" d="M16.642 12.427q0 .49.358.848t.848.357.847-.357.358-.848q0-2.75-1.94-4.688t-4.688-1.94-4.688 1.94-1.94 4.688q0 .49.358.848t.848.357.848-.357.357-.848q0-1.751 1.244-2.984t2.974-1.234 2.975 1.234 1.243 2.984h-.002zM12.482 1.58q-2.204 0-4.21.858T4.808 4.753 2.492 8.218t-.858 4.21q0 .488.358.847t.848.357.848-.357.357-.848q0-3.484 2.476-5.96t5.96-2.476 5.96 2.476 2.476 5.96q0 1.036-.338 1.949t-.707 1.402-1.12 1.356q-.64.734-.98 1.187t-.82 1.253-.697 1.713-.216 1.987q0 1.996-1.412 3.408t-3.408 1.412q-.49 0-.848.358t-.357.847.357.848.848.358q2.994 0 5.112-2.119t2.119-5.112q0-.772.141-1.393t.499-1.205.63-.942.858-1.017q.659-.772.997-1.215t.83-1.27.706-1.761.216-2.044q0-2.203-.857-4.209t-2.316-3.465-3.465-2.315-4.209-.858h.001z"/></svg>