<svg xmlns="http://www.w3.org/2000/svg" width="55" height="64" viewBox="0 0 55 64"><path fill="#2f70b2" d="M36.571 32q0-3.786-2.679-6.464t-6.464-2.679-6.464 2.679T18.285 32t2.679 6.464 6.464 2.679 6.464-2.679T36.571 32zm18.286-3.893v7.929q0 .429-.286.821t-.714.464l-6.607 1q-.679 1.929-1.393 3.25 1.25 1.786 3.821 4.929.357.429.357.893t-.321.821q-.964 1.321-3.536 3.857t-3.357 2.536q-.429 0-.929-.321l-4.929-3.857q-1.571.821-3.25 1.357-.571 4.857-1.036 6.643-.25 1-1.286 1h-7.929q-.5 0-.875-.304t-.411-.768l-1-6.571q-1.75-.571-3.214-1.321l-5.036 3.821q-.357.321-.893.321-.5 0-.893-.393-4.5-4.071-5.893-6-.25-.357-.25-.821 0-.429.286-.821.536-.75 1.821-2.375t1.929-2.518q-.964-1.786-1.464-3.536l-6.536-.964q-.464-.071-.75-.446t-.286-.839v-7.929q0-.429.286-.821t.679-.464l6.643-1q.5-1.643 1.393-3.286-1.429-2.036-3.821-4.929-.357-.429-.357-.857 0-.357.321-.821.929-1.286 3.518-3.839t3.375-2.554q.464 0 .929.357l4.929 3.821q1.571-.821 3.25-1.357.571-4.857 1.036-6.643.25-1 1.286-1h7.929q.5 0 .875.304t.411.768l1 6.571q1.75.571 3.214 1.321l5.071-3.821q.321-.321.857-.321.464 0 .893.357 4.607 4.25 5.893 6.071.25.286.25.786 0 .429-.286.821-.536.75-1.821 2.375t-1.929 2.518q.929 1.786 1.464 3.5l6.536 1q.464.071.75.446t.286.839z"/></svg>