<svg xmlns="http://www.w3.org/2000/svg" width="32" height="32" viewBox="0 0 32 32"><path fill="#333" d="M29.714 17.143Q27 12.929 22.91 10.839q1.089 1.857 1.089 4.018 0 3.304-2.348 5.652t-5.652 2.348-5.652-2.348-2.348-5.652q0-2.161 1.089-4.018-4.089 2.089-6.804 6.304 2.375 3.661 5.955 5.83t7.759 2.17 7.759-2.17 5.955-5.83zm-12.857-6.857q0-.357-.25-.607T16 9.429q-2.232 0-3.83 1.598t-1.598 3.83q0 .357.25.607t.607.25.607-.25.25-.607q0-1.536 1.089-2.625T16 11.143q.357 0 .607-.25t.25-.607zM32 17.143q0 .607-.357 1.232-2.5 4.107-6.723 6.58T16 27.428t-8.92-2.482-6.723-6.571Q0 17.75 0 17.143t.357-1.232q2.5-4.089 6.723-6.571T16 6.858t8.92 2.482 6.723 6.571q.357.625.357 1.232z"/></svg>