<svg xmlns="http://www.w3.org/2000/svg" width="27" height="32" viewBox="0 0 27 32"><path fill="#333" d="M26.214 6.786q.5.5.857 1.357t.357 1.571v20.571q0 .714-.5 1.214t-1.214.5h-24q-.714 0-1.214-.5T0 30.285V1.714Q0 1 .5.5T1.714 0h16q.714 0 1.571.357t1.357.857zm-7.928-4.357v6.714H25q-.179-.518-.393-.732l-5.589-5.589q-.214-.214-.732-.393zm6.857 27.285V11.428h-7.429q-.714 0-1.214-.5T16 9.714V2.285H2.286v27.429h22.857zM11.071 15.179q.357.143.357.536v9.714q0 .393-.357.536-.143.036-.214.036-.214 0-.411-.161l-2.964-2.982H5.143q-.25 0-.411-.161t-.161-.411v-3.429q0-.25.161-.411t.411-.161h2.339l2.964-2.982q.286-.268.625-.125zm7.447 12.303q.554 0 .893-.429 2.304-2.839 2.304-6.482t-2.304-6.482q-.286-.375-.768-.429t-.839.25q-.375.304-.42.777t.259.848q1.786 2.196 1.786 5.036t-1.786 5.036q-.304.375-.259.848t.42.759q.321.268.714.268zm-3.768-2.643q.482 0 .839-.357 1.554-1.661 1.554-3.911t-1.554-3.911q-.321-.339-.804-.357t-.821.304-.357.795.321.83q.929 1.018.929 2.339t-.929 2.339q-.339.357-.321.83t.357.795q.357.304.786.304z"/></svg>