<svg xmlns="http://www.w3.org/2000/svg" width="27" height="32" viewBox="0 0 27 32"><path fill="#333" d="M26.214 6.786q.5.5.857 1.357t.357 1.571v20.571q0 .714-.5 1.214t-1.214.5h-24q-.714 0-1.214-.5T0 30.285V1.714Q0 1 .5.5T1.714 0h16q.714 0 1.571.357t1.357.857zm-7.928-4.357v6.714H25q-.179-.518-.393-.732l-5.589-5.589q-.214-.214-.732-.393zm6.857 27.285V11.428h-7.429q-.714 0-1.214-.5T16 9.714V2.285H2.286v27.429h22.857zm-2.286-8v5.714H4.571v-3.429L8 20.57l2.286 2.286 6.857-6.857zM8 18.286q-1.429 0-2.429-1t-1-2.429 1-2.429 2.429-1 2.429 1 1 2.429-1 2.429-2.429 1z"/></svg>