<svg xmlns="http://www.w3.org/2000/svg" width="32" height="32" viewBox="0 0 32 32"><path fill="#f66862" d="M10.875 14.571L16 10.857l5.125 3.714-1.946 6H12.84zM16 0q3.25 0 6.214 1.268t5.107 3.411 3.411 5.107T32 16t-1.268 6.214-3.411 5.107-5.107 3.411T16 32t-6.214-1.268-5.107-3.411-3.411-5.107T0 16t1.268-6.214 3.411-5.107 5.107-3.411T16 0zm11.054 24.107q2.661-3.625 2.661-8.107v-.054l-1.821 1.589-4.286-4 1.125-5.768 2.393.214q-2.679-3.679-6.946-5.036l.946 2.214-5.125 2.839-5.125-2.839.946-2.214Q7.554 4.302 4.876 7.981l2.411-.214 1.107 5.768-4.286 4-1.821-1.589V16q0 4.482 2.661 8.107l.536-2.357 5.821.714 2.482 5.321-2.071 1.232q2.089.696 4.286.696t4.286-.696l-2.071-1.232 2.482-5.321 5.821-.714z"/></svg>