<svg width="66" height="64" xmlns="http://www.w3.org/2000/svg"><path d="M60.575 25.142q0-1.893-1.339-3.232t-3.232-1.339h-32l7.214-5.393q1.93-1.464 1.93-3.82 0-1.858-1.358-3.18t-3.214-1.32q-1.536 0-2.75.928L7.54 21.5q-1.82 1.357-1.82 3.643v25.643q0 .786.481 1.411t1.232.804l13.143 3.286q3.43.857 6.93.857h7.75q1.463 0 2.535-1t1.071-2.429-1-2.429-2.429-1v-1.143h2.18q1.713 0 2.91-1.143t1.196-2.857q0-1.643-1.179-2.82t-2.82-1.18h-2.287V40h3.214q1.964 0 3.375-1.32t1.411-3.25q0-1.894-1.339-3.233t-3.232-1.339h-3.429v-1.143H55.79q1.964 0 3.375-1.32t1.411-3.25v-.003zm4.571 0q0 3.821-2.768 6.482t-6.589 2.661h-7.857q.071.786.071 1.143 0 3.536-2.464 6.18.75 1.678.75 3.535 0 4.036-3.107 6.571.25.964.25 2 0 3.357-2.41 5.68t-5.769 2.32h-7.75q-4.143 0-8.036-1L6.324 57.428Q4.038 56.858 2.592 55t-1.446-4.214V25.142q0-2.143.982-4.089t2.661-3.232L23.075 4.107q2.43-1.82 5.5-1.82 3.75 0 6.446 2.66t2.696 6.411q0 2.536-1.25 4.643h19.536q3.786 0 6.464 2.68t2.68 6.463v-.002zM14.86 29.714h13.714v-1.143H14.86v1.143zm0 9.142h13.714v-1.143H14.86v1.143zm0 9.143h13.714v-1.143H14.86V48z" fill="#de4f4f"/></svg>