<svg xmlns="http://www.w3.org/2000/svg" width="32" height="32" viewBox="0 0 32 32"><path fill="#f66862" d="M29.714 10.643q0-1.446-.384-2.554t-.982-1.759-1.455-1.063-1.679-.554-1.75-.143-2 .455-1.973 1.143-1.545 1.286-1.071 1.098q-.321.393-.875.393t-.875-.393q-.429-.5-1.071-1.098t-1.545-1.286-1.973-1.143-2-.455-1.75.143-1.679.554T3.652 6.33 2.67 8.089t-.384 2.554q0 3 3.339 6.339l10.375 10L26.357 17q3.357-3.357 3.357-6.357zm2.286 0q0 3.946-4.089 8.036L16.786 29.393q-.321.321-.786.321t-.786-.321L4.071 18.643q-.179-.143-.491-.464t-.991-1.17-1.214-1.741-.955-2.161T0 10.643Q0 6.714 2.268 4.5t6.268-2.214q1.107 0 2.259.384t2.143 1.036 1.705 1.223T16 6.143q.643-.643 1.357-1.214t1.705-1.223 2.143-1.036 2.259-.384q4 0 6.268 2.214T32 10.643z"/></svg>